<svg width="22" height="22" viewBox="0 0 22 22" fill="none" xmlns="http://www.w3.org/2000/svg">
<path d="M21.1836 10.8359L12.1273 1.78437L11.5203 1.17734C11.382 1.03994 11.195 0.96283 11 0.96283C10.805 0.96283 10.618 1.03994 10.4797 1.17734L0.816409 10.8359C0.674685 10.9771 0.562678 11.1452 0.487 11.3304C0.411321 11.5156 0.373505 11.714 0.375784 11.9141C0.385159 12.7391 1.07188 13.3977 1.89688 13.3977H2.89297V21.0312H19.107V13.3977H20.1242C20.525 13.3977 20.9023 13.2406 21.1859 12.957C21.3256 12.8178 21.4362 12.6523 21.5115 12.4701C21.5867 12.2878 21.625 12.0925 21.6242 11.8953C21.6242 11.4969 21.4672 11.1195 21.1836 10.8359V10.8359ZM12.3125 19.3437H9.6875V14.5625H12.3125V19.3437ZM17.4195 11.7102V19.3437H13.8125V14C13.8125 13.482 13.393 13.0625 12.875 13.0625H9.125C8.60703 13.0625 8.1875 13.482 8.1875 14V19.3437H4.58047V11.7102H2.33047L11.0023 3.04531L11.5438 3.58672L19.6719 11.7102H17.4195Z" fill="#5D5FEF"/>
</svg>
