<svg width="24" height="24" viewBox="0 0 24 24" fill="none" xmlns="http://www.w3.org/2000/svg">
<path d="M19.875 3H4.125C2.953 3 2 3.897 2 5V19C2 20.103 2.953 21 4.125 21H19.875C21.047 21 22 20.103 22 19V5C22 3.897 21.047 3 19.875 3ZM19.875 19H4.125C4.068 19 4.029 18.984 4.012 18.984C4.005 18.984 4.001 18.986 4 18.992L3.988 5.046C3.995 5.036 4.04 5 4.125 5H19.875C19.954 5.001 19.997 5.028 20 5.008L20.012 18.954C20.005 18.964 19.96 19 19.875 19Z" fill="#B9B4FF"/>
<path d="M6 7H12V13H6V7ZM13 15H6V17H18V15H14H13ZM14 11H18V13H14V11ZM14 7H18V9H14V7Z" fill="#B9B4FF"/>
</svg>
