<svg width="19" height="19" viewBox="0 0 19 19" fill="none" xmlns="http://www.w3.org/2000/svg">
<path d="M4.719 4.50001H5.625C5.92337 4.50001 6.20952 4.61854 6.4205 4.82952C6.63147 5.04049 6.75 5.32664 6.75 5.62501C6.75 5.92338 6.63147 6.20953 6.4205 6.42051C6.20952 6.63149 5.92337 6.75001 5.625 6.75001H1.875C1.57663 6.75001 1.29048 6.63149 1.0795 6.42051C0.868526 6.20953 0.75 5.92338 0.75 5.62501V1.87501C0.75 1.57664 0.868526 1.29049 1.0795 1.07952C1.29048 0.868538 1.57663 0.750012 1.875 0.750012C2.17337 0.750012 2.45952 0.868538 2.6705 1.07952C2.88147 1.29049 3 1.57664 3 1.87501V3.04651C4.35713 1.50863 6.19884 0.480438 8.22012 0.132205C10.2414 -0.216028 12.321 0.136594 14.1145 1.13167C15.908 2.12675 17.3079 3.70459 18.0822 5.60388C18.8565 7.50317 18.9588 9.60997 18.3723 11.5754C17.7857 13.5408 16.5454 15.2469 14.8568 16.4111C13.1682 17.5754 11.1326 18.1279 9.08704 17.9772C7.04152 17.8266 5.10882 16.9817 3.60901 15.5826C2.1092 14.1836 1.13227 12.3141 0.84 10.284C0.79783 9.98843 0.874808 9.6882 1.054 9.44937C1.23319 9.21054 1.49992 9.05268 1.7955 9.01051C2.09108 8.96834 2.39131 9.04532 2.63014 9.22451C2.86897 9.4037 3.02683 9.67043 3.069 9.96601C3.2886 11.4868 4.0204 12.8872 5.14351 13.9359C6.26662 14.9845 7.71385 15.6187 9.24612 15.7337C10.7784 15.8486 12.304 15.4375 13.571 14.5681C14.838 13.6987 15.7706 12.4232 16.2146 10.9522C16.6587 9.48117 16.5877 7.90269 16.0133 6.47749C15.439 5.05229 14.3956 3.86565 13.0557 3.11357C11.7158 2.3615 10.1594 2.08899 8.64359 2.34107C7.12783 2.59315 5.7434 3.35473 4.719 4.50001ZM9.375 4.50001C9.67337 4.50001 9.95952 4.61854 10.1705 4.82952C10.3815 5.04049 10.5 5.32664 10.5 5.62501V8.25001H11.625C11.9234 8.25001 12.2095 8.36854 12.4205 8.57952C12.6315 8.79049 12.75 9.07664 12.75 9.37501C12.75 9.67338 12.6315 9.95953 12.4205 10.1705C12.2095 10.3815 11.9234 10.5 11.625 10.5H9.375C9.07663 10.5 8.79048 10.3815 8.5795 10.1705C8.36853 9.95953 8.25 9.67338 8.25 9.37501V5.62501C8.25 5.32664 8.36853 5.04049 8.5795 4.82952C8.79048 4.61854 9.07663 4.50001 9.375 4.50001Z" fill="#B9B4FF"/>
</svg>
