<svg width="27" height="26" viewBox="0 0 27 26" fill="none" xmlns="http://www.w3.org/2000/svg">
<rect x="0.5" width="26" height="26" rx="11" fill="#B9B4FF"/>
<path d="M9.70834 4.33334C8.41541 4.33334 7.17543 4.84696 6.26119 5.7612C5.34695 6.67544 4.83334 7.91541 4.83334 9.20834V9.98184C4.83334 10.1952 4.87537 10.4065 4.95704 10.6037C5.0387 10.8009 5.1584 10.98 5.30929 11.1309C5.46019 11.2818 5.63932 11.4015 5.83648 11.4831C6.03363 11.5648 6.24494 11.6068 6.45834 11.6068C6.67174 11.6068 6.88305 11.5648 7.0802 11.4831C7.27735 11.4015 7.45649 11.2818 7.60739 11.1309C7.75828 10.98 7.87798 10.8009 7.95964 10.6037C8.04131 10.4065 8.08334 10.1952 8.08334 9.98184V9.20834C8.08334 8.77737 8.25454 8.36404 8.55929 8.05929C8.86404 7.75455 9.27736 7.58334 9.70834 7.58334H10.4818C10.6952 7.58334 10.9065 7.54131 11.1037 7.45965C11.3009 7.37798 11.48 7.25829 11.6309 7.10739C11.7818 6.9565 11.9015 6.77736 11.9831 6.5802C12.0648 6.38305 12.1068 6.17174 12.1068 5.95834C12.1068 5.74495 12.0648 5.53364 11.9831 5.33648C11.9015 5.13933 11.7818 4.96019 11.6309 4.80929C11.48 4.6584 11.3009 4.5387 11.1037 4.45704C10.9065 4.37538 10.6952 4.33334 10.4818 4.33334H9.70834ZM16.5182 4.33334C16.3048 4.33334 16.0935 4.37538 15.8963 4.45704C15.6992 4.5387 15.52 4.6584 15.3691 4.80929C15.2182 4.96019 15.0985 5.13933 15.0169 5.33648C14.9352 5.53364 14.8932 5.74495 14.8932 5.95834C14.8932 6.17174 14.9352 6.38305 15.0169 6.5802C15.0985 6.77736 15.2182 6.9565 15.3691 7.10739C15.52 7.25829 15.6992 7.37798 15.8963 7.45965C16.0935 7.54131 16.3048 7.58334 16.5182 7.58334H17.2917C17.7226 7.58334 18.136 7.75455 18.4407 8.05929C18.7455 8.36404 18.9167 8.77737 18.9167 9.20834V9.98184C18.9167 10.4128 19.0879 10.8261 19.3926 11.1309C19.6974 11.4356 20.1107 11.6068 20.5417 11.6068C20.9726 11.6068 21.386 11.4356 21.6907 11.1309C21.9955 10.8261 22.1667 10.4128 22.1667 9.98184V9.20834C22.1667 8.56815 22.0406 7.93422 21.7956 7.34276C21.5506 6.7513 21.1915 6.21388 20.7388 5.7612C20.2861 5.30851 19.7487 4.94942 19.1572 4.70443C18.5658 4.45944 17.9319 4.33334 17.2917 4.33334H16.5182ZM8.08334 16.0182C8.08334 15.8048 8.04131 15.5935 7.95964 15.3963C7.87798 15.1992 7.75828 15.02 7.60739 14.8691C7.45649 14.7182 7.27735 14.5985 7.0802 14.5169C6.88305 14.4352 6.67174 14.3932 6.45834 14.3932C6.24494 14.3932 6.03363 14.4352 5.83648 14.5169C5.63932 14.5985 5.46019 14.7182 5.30929 14.8691C5.1584 15.02 5.0387 15.1992 4.95704 15.3963C4.87537 15.5935 4.83334 15.8048 4.83334 16.0182V16.7917C4.83334 17.4319 4.95944 18.0658 5.20443 18.6573C5.44942 19.2487 5.80851 19.7861 6.26119 20.2388C7.17543 21.1531 8.41541 21.6667 9.70834 21.6667H10.4818C10.9128 21.6667 11.3261 21.4955 11.6309 21.1907C11.9356 20.886 12.1068 20.4726 12.1068 20.0417C12.1068 19.6107 11.9356 19.1974 11.6309 18.8926C11.3261 18.5879 10.9128 18.4167 10.4818 18.4167H9.70834C9.27736 18.4167 8.86404 18.2455 8.55929 17.9407C8.25454 17.636 8.08334 17.2226 8.08334 16.7917V16.0182ZM22.1667 16.0182C22.1667 15.5872 21.9955 15.1739 21.6907 14.8691C21.386 14.5644 20.9726 14.3932 20.5417 14.3932C20.1107 14.3932 19.6974 14.5644 19.3926 14.8691C19.0879 15.1739 18.9167 15.5872 18.9167 16.0182V16.7917C18.9167 17.2226 18.7455 17.636 18.4407 17.9407C18.136 18.2455 17.7226 18.4167 17.2917 18.4167H16.5182C16.0872 18.4167 15.6739 18.5879 15.3691 18.8926C15.0644 19.1974 14.8932 19.6107 14.8932 20.0417C14.8932 20.4726 15.0644 20.886 15.3691 21.1907C15.6739 21.4955 16.0872 21.6667 16.5182 21.6667H17.2917C17.9319 21.6667 18.5658 21.5406 19.1572 21.2956C19.7487 21.0506 20.2861 20.6915 20.7388 20.2388C21.1915 19.7861 21.5506 19.2487 21.7956 18.6573C22.0406 18.0658 22.1667 17.4319 22.1667 16.7917V16.0182ZM10.7917 11.375C10.3607 11.375 9.94737 11.5462 9.64262 11.851C9.33788 12.1557 9.16667 12.569 9.16667 13C9.16667 13.431 9.33788 13.8443 9.64262 14.1491C9.94737 14.4538 10.3607 14.625 10.7917 14.625H16.2083C16.6393 14.625 17.0526 14.4538 17.3574 14.1491C17.6621 13.8443 17.8333 13.431 17.8333 13C17.8333 12.569 17.6621 12.1557 17.3574 11.851C17.0526 11.5462 16.6393 11.375 16.2083 11.375H10.7917Z" fill="white"/>
<path d="M9.70834 4.33334C8.41541 4.33334 7.17543 4.84696 6.26119 5.7612C5.34695 6.67544 4.83334 7.91541 4.83334 9.20834V9.98184C4.83334 10.1952 4.87537 10.4065 4.95704 10.6037C5.0387 10.8009 5.1584 10.98 5.30929 11.1309C5.46019 11.2818 5.63932 11.4015 5.83648 11.4831C6.03363 11.5648 6.24494 11.6068 6.45834 11.6068C6.67174 11.6068 6.88305 11.5648 7.0802 11.4831C7.27735 11.4015 7.45649 11.2818 7.60739 11.1309C7.75828 10.98 7.87798 10.8009 7.95964 10.6037C8.04131 10.4065 8.08334 10.1952 8.08334 9.98184V9.20834C8.08334 8.77737 8.25454 8.36404 8.55929 8.05929C8.86404 7.75455 9.27736 7.58334 9.70834 7.58334H10.4818C10.6952 7.58334 10.9065 7.54131 11.1037 7.45965C11.3009 7.37798 11.48 7.25829 11.6309 7.10739C11.7818 6.9565 11.9015 6.77736 11.9831 6.5802C12.0648 6.38305 12.1068 6.17174 12.1068 5.95834C12.1068 5.74495 12.0648 5.53364 11.9831 5.33648C11.9015 5.13933 11.7818 4.96019 11.6309 4.80929C11.48 4.6584 11.3009 4.5387 11.1037 4.45704C10.9065 4.37538 10.6952 4.33334 10.4818 4.33334H9.70834ZM16.5182 4.33334C16.3048 4.33334 16.0935 4.37538 15.8963 4.45704C15.6992 4.5387 15.52 4.6584 15.3691 4.80929C15.2182 4.96019 15.0985 5.13933 15.0169 5.33648C14.9352 5.53364 14.8932 5.74495 14.8932 5.95834C14.8932 6.17174 14.9352 6.38305 15.0169 6.5802C15.0985 6.77736 15.2182 6.9565 15.3691 7.10739C15.52 7.25829 15.6992 7.37798 15.8963 7.45965C16.0935 7.54131 16.3048 7.58334 16.5182 7.58334H17.2917C17.7226 7.58334 18.136 7.75455 18.4407 8.05929C18.7455 8.36404 18.9167 8.77737 18.9167 9.20834V9.98184C18.9167 10.4128 19.0879 10.8261 19.3926 11.1309C19.6974 11.4356 20.1107 11.6068 20.5417 11.6068C20.9726 11.6068 21.386 11.4356 21.6907 11.1309C21.9955 10.8261 22.1667 10.4128 22.1667 9.98184V9.20834C22.1667 8.56815 22.0406 7.93422 21.7956 7.34276C21.5506 6.7513 21.1915 6.21388 20.7388 5.7612C20.2861 5.30851 19.7487 4.94942 19.1572 4.70443C18.5658 4.45944 17.9319 4.33334 17.2917 4.33334H16.5182ZM8.08334 16.0182C8.08334 15.8048 8.04131 15.5935 7.95964 15.3963C7.87798 15.1992 7.75828 15.02 7.60739 14.8691C7.45649 14.7182 7.27735 14.5985 7.0802 14.5169C6.88305 14.4352 6.67174 14.3932 6.45834 14.3932C6.24494 14.3932 6.03363 14.4352 5.83648 14.5169C5.63932 14.5985 5.46019 14.7182 5.30929 14.8691C5.1584 15.02 5.0387 15.1992 4.95704 15.3963C4.87537 15.5935 4.83334 15.8048 4.83334 16.0182V16.7917C4.83334 17.4319 4.95944 18.0658 5.20443 18.6573C5.44942 19.2487 5.80851 19.7861 6.26119 20.2388C7.17543 21.1531 8.41541 21.6667 9.70834 21.6667H10.4818C10.9128 21.6667 11.3261 21.4955 11.6309 21.1907C11.9356 20.886 12.1068 20.4726 12.1068 20.0417C12.1068 19.6107 11.9356 19.1974 11.6309 18.8926C11.3261 18.5879 10.9128 18.4167 10.4818 18.4167H9.70834C9.27736 18.4167 8.86404 18.2455 8.55929 17.9407C8.25454 17.636 8.08334 17.2226 8.08334 16.7917V16.0182ZM22.1667 16.0182C22.1667 15.5872 21.9955 15.1739 21.6907 14.8691C21.386 14.5644 20.9726 14.3932 20.5417 14.3932C20.1107 14.3932 19.6974 14.5644 19.3926 14.8691C19.0879 15.1739 18.9167 15.5872 18.9167 16.0182V16.7917C18.9167 17.2226 18.7455 17.636 18.4407 17.9407C18.136 18.2455 17.7226 18.4167 17.2917 18.4167H16.5182C16.0872 18.4167 15.6739 18.5879 15.3691 18.8926C15.0644 19.1974 14.8932 19.6107 14.8932 20.0417C14.8932 20.4726 15.0644 20.886 15.3691 21.1907C15.6739 21.4955 16.0872 21.6667 16.5182 21.6667H17.2917C17.9319 21.6667 18.5658 21.5406 19.1572 21.2956C19.7487 21.0506 20.2861 20.6915 20.7388 20.2388C21.1915 19.7861 21.5506 19.2487 21.7956 18.6573C22.0406 18.0658 22.1667 17.4319 22.1667 16.7917V16.0182ZM10.7917 11.375C10.3607 11.375 9.94737 11.5462 9.64262 11.851C9.33788 12.1557 9.16667 12.569 9.16667 13C9.16667 13.431 9.33788 13.8443 9.64262 14.1491C9.94737 14.4538 10.3607 14.625 10.7917 14.625H16.2083C16.6393 14.625 17.0526 14.4538 17.3574 14.1491C17.6621 13.8443 17.8333 13.431 17.8333 13C17.8333 12.569 17.6621 12.1557 17.3574 11.851C17.0526 11.5462 16.6393 11.375 16.2083 11.375H10.7917Z" fill="#B9B4FF" fill-opacity="0.3"/>
</svg>
