<svg width="20" height="20" viewBox="0 0 20 20" fill="none" xmlns="http://www.w3.org/2000/svg">
<path d="M19.5687 18.0273L13.482 11.9406C14.4266 10.7195 14.9375 9.22656 14.9375 7.65625C14.9375 5.77656 14.2039 4.01406 12.8773 2.68516C11.5508 1.35625 9.78359 0.625 7.90625 0.625C6.02891 0.625 4.26172 1.35859 2.93516 2.68516C1.60625 4.01172 0.875 5.77656 0.875 7.65625C0.875 9.53359 1.60859 11.3008 2.93516 12.6273C4.26172 13.9562 6.02656 14.6875 7.90625 14.6875C9.47656 14.6875 10.9672 14.1766 12.1883 13.2344L18.275 19.3187C18.2928 19.3366 18.314 19.3508 18.3374 19.3604C18.3607 19.3701 18.3857 19.3751 18.4109 19.3751C18.4362 19.3751 18.4612 19.3701 18.4845 19.3604C18.5078 19.3508 18.529 19.3366 18.5469 19.3187L19.5687 18.2992C19.5866 18.2814 19.6008 18.2602 19.6104 18.2369C19.6201 18.2135 19.6251 18.1885 19.6251 18.1633C19.6251 18.138 19.6201 18.113 19.6104 18.0897C19.6008 18.0664 19.5866 18.0452 19.5687 18.0273V18.0273ZM11.6188 11.3688C10.625 12.3602 9.30781 12.9062 7.90625 12.9062C6.50469 12.9062 5.1875 12.3602 4.19375 11.3688C3.20234 10.375 2.65625 9.05781 2.65625 7.65625C2.65625 6.25469 3.20234 4.93516 4.19375 3.94375C5.1875 2.95234 6.50469 2.40625 7.90625 2.40625C9.30781 2.40625 10.6273 2.95 11.6188 3.94375C12.6102 4.9375 13.1562 6.25469 13.1562 7.65625C13.1562 9.05781 12.6102 10.3773 11.6188 11.3688Z" fill="#B9B4FF"/>
</svg>
